<svg width="193" height="130" viewBox="0 0 193 130" fill="none" xmlns="http://www.w3.org/2000/svg">
<g clip-path="url(#clip0_1_5727)">
<mask id="mask0_1_5727" style="mask-type:alpha" maskUnits="userSpaceOnUse" x="0" y="0" width="193" height="130">
<path d="M0.748169 0.458496H192.521V129.488H0.748169V0.458496Z" fill="white"/>
</mask>
<g mask="url(#mask0_1_5727)">
<path fill-rule="evenodd" clip-rule="evenodd" d="M187.776 31.7952C187.746 31.7887 187.719 31.788 187.689 31.7777C187.618 31.7533 187.549 31.721 187.485 31.6815C187.609 31.6577 187.723 31.6493 187.76 31.7048C187.777 31.73 187.779 31.7616 187.776 31.7952ZM192.265 14.1279L192.199 13.9498L192.108 13.7832C191.846 13.2978 190.803 11.7447 188.414 12.1436C188.023 12.2088 187.633 12.2817 187.243 12.354L187.022 12.3954C186.094 12.5671 181.954 13.4088 180.698 13.709C180.37 13.7864 179.738 13.9214 179.007 14.0769C176.878 14.5294 175.315 14.869 174.621 15.102C174.28 15.2169 173.889 15.3176 173.477 15.4235C173.225 15.488 172.975 15.5526 172.727 15.621C171.836 15.8689 171.162 16.3388 170.608 17.0993C170.442 17.329 170.296 17.5726 170.172 17.8274C169.922 17.6163 169.656 17.4255 169.376 17.2568C168.18 16.548 166.474 16.5422 166.401 16.5422C165.739 16.5428 164.191 16.6893 163.592 16.8307C163.043 16.9598 161.782 17.3433 160.939 17.8732C160.286 18.2838 158.687 19.7304 158.138 20.7671C158.04 20.9517 157.952 21.1402 157.872 21.3306C157.619 21.0549 157.34 20.8027 157.041 20.5773C155.713 19.5832 154.24 19.5057 153.245 19.5342C152.947 19.5425 152.496 19.5535 152.007 19.6762C151.877 19.7059 151.388 19.8072 151.217 19.835C151.125 19.8505 150.989 19.875 150.612 19.9544C150.096 19.4507 149.572 18.9559 149.039 18.4703L149.48 17.6015L148.035 16.1684C143.874 12.0403 138.87 9.32849 134.102 6.90456C120.488 -0.0154087 105.522 -1.371 89.6302 2.87136C81.9734 4.91507 72.4661 10.4995 64.1959 17.8093C60.2567 21.2913 51.2185 30.0161 50.4601 37.3544C48.6254 41.1148 47.1706 45.0497 46.1176 49.1002C45.233 49.0525 43.9895 49.3352 42.9689 50.909L42.9386 50.9542C42.7485 51.2421 42.5907 51.4596 42.4412 51.6378C42.0972 52.0477 41.815 52.3336 41.5682 52.5221L41.4367 52.4027C39.6443 50.7637 37.792 49.4721 35.9325 48.5632C35.0701 48.1412 34.1951 47.7453 33.3089 47.3761C32.3766 46.9887 31.4256 46.837 30.6622 46.715L30.3993 46.6731C29.3897 46.5072 28.4838 46.5633 27.6842 46.6118C27.4426 46.6266 27.201 46.6421 26.9587 46.6486C26.0677 46.6718 25.1644 46.7796 24.1174 46.9881C21.6388 47.4787 19.4578 48.5328 17.4541 49.5986C16.255 50.237 15.1752 50.8283 14.1102 51.6068C13.1018 52.3435 12.1498 53.1548 11.2624 54.0339C9.41515 55.8666 7.9468 57.9096 6.60151 59.8436C6.26003 60.3355 5.86636 60.9139 5.52231 61.5607C5.25364 62.0661 5.04746 62.5613 4.86512 62.9989C4.80843 63.1345 4.75237 63.2707 4.6931 63.4088C4.5623 63.7122 4.41734 64.0104 4.2743 64.308C4.11258 64.6418 3.95151 64.9768 3.80268 65.317C3.06689 66.994 2.39424 69.2333 1.80278 71.9742C1.42522 73.7255 1.26543 75.198 1.09469 76.7575C1.04959 77.1752 1.00256 77.6044 0.949727 78.055C0.669397 80.4231 0.661182 82.8155 0.925244 85.1854C1.06377 86.4106 1.26737 87.6771 1.53024 88.9514C1.57147 89.1528 1.65394 89.615 1.74608 90.1269C1.93615 91.1823 2.06694 91.9021 2.15263 92.2726C2.44965 93.5597 2.90259 94.7256 3.38002 95.9056C3.87484 97.1282 4.32069 98.11 4.78265 98.9937C6.06352 101.443 7.67168 103.512 9.56205 105.144C10.4686 105.927 11.3307 106.582 12.1959 107.147C13.2681 107.848 14.335 108.518 15.6023 109.01C18.0423 109.959 20.4107 110.238 22.4061 110.386C24.6444 110.553 26.9536 110.326 29.4638 109.699C30.0527 109.551 30.6396 109.396 31.2221 109.228C31.5339 109.138 31.8122 109.025 33.4591 108.199C33.4591 108.205 33.4591 108.21 33.4578 108.215L33.4526 108.28C33.4191 108.647 33.3495 109.412 33.6968 110.237C34.2657 111.59 35.5762 112.432 36.9582 112.332C37.0749 112.324 37.2185 112.306 37.3796 112.272C38.2095 112.096 39.5155 111.475 40.065 109.358L40.268 108.583C40.5341 107.571 40.9819 105.865 41.1958 105.039C41.4355 104.109 41.6004 103.228 41.7595 102.375C41.824 102.029 41.8884 101.68 41.9599 101.327C42.0185 101.033 42.3787 99.7116 42.552 99.0757L42.677 98.6148C43.1227 99.1616 43.613 99.6703 44.1428 100.136C44.7626 100.682 45.7168 101.476 46.8424 102.065C48.0659 102.704 49.2759 103.046 50.1947 103.271C51.4092 103.569 52.4143 103.739 53.3582 103.807C53.8266 103.84 54.8207 103.878 55.5694 103.799L56.032 103.754C56.498 103.71 56.9636 103.663 57.4289 103.613C59.4629 106.211 61.6977 108.645 64.1128 110.892C68.0694 115.513 73.2889 119.334 80.5211 122.907C93.371 129.256 106.58 131.025 119.896 128.199C122.667 127.61 125.444 126.823 128.222 125.837C144.285 120.135 156.287 109.412 163.897 93.9671C165.418 90.8802 167.141 87.3815 166.861 83.0365L166.859 83.0094C167.181 81.9417 167.474 80.8663 167.738 79.7831C170.303 79.215 173.511 78.4927 174.466 78.2351C175.084 78.0679 175.688 77.9104 176.274 77.8026C176.589 77.7458 176.899 77.6787 177.208 77.6109C177.599 77.525 177.965 77.4437 178.284 77.4056C179.31 77.2819 180.331 77.1171 181.344 76.9118C182.247 76.7453 182.892 76.345 183.352 75.9203C183.581 76.0294 183.817 76.123 184.064 76.1895C184.753 76.3701 185.474 76.3849 186.17 76.2327C187.778 75.8919 189.226 74.7351 189.784 73.1516C190.296 71.6979 190.21 70.1526 189.555 69.0165C188.991 68.0378 188.056 67.3833 186.923 67.1722C186.39 67.0743 185.845 67.0708 185.311 67.1619C185.677 64.6502 185.779 63.0609 185.611 62.4341C185.258 61.125 184.139 60.2354 182.861 60.1567C181.296 59.9308 179.539 60.7093 178.883 63.0228C178.506 63.9724 176.028 67.6854 175.23 68.5769C174.753 69.1131 174.245 69.6211 173.709 70.0983C173.332 70.4321 173.026 70.6741 172.758 70.7729C172.297 70.9427 171.758 71.066 171.102 71.2106C170.857 71.2642 170.549 71.3332 170.232 71.4055V71.31C170.229 71.0176 170.271 70.6516 170.316 70.2649C170.336 70.0867 170.356 69.9086 170.374 69.731C170.42 69.294 170.862 66.6287 171.154 64.8658L171.354 63.6599C171.542 64.0646 171.809 64.427 172.141 64.725C172.493 65.0452 172.911 65.2837 173.365 65.4236C173.819 65.5636 174.299 65.6014 174.77 65.5345C175.772 65.3925 176.662 64.7909 177.219 63.8846C177.822 62.9014 177.976 61.837 178.09 61.0598C178.11 60.921 178.129 60.7854 178.152 60.6583C178.244 60.1406 178.342 59.6248 178.44 59.109C178.503 58.7772 178.567 58.4461 178.628 58.1123C178.706 57.6947 178.807 57.2583 178.914 56.7955C179.14 55.8195 179.396 54.7117 179.468 53.5362L179.471 53.4891C179.51 52.863 179.616 51.2014 178.313 50.0776C177.983 49.7909 177.595 49.5775 177.176 49.4515C176.757 49.3254 176.317 49.2895 175.883 49.3462C175.167 49.4404 174.619 49.758 174.214 50.1021C174.304 49.7535 174.381 49.4611 174.437 49.2481C174.528 48.9072 174.611 48.5645 174.694 48.2217C174.783 47.8505 174.873 47.4793 174.975 47.1114C175.052 46.8377 175.122 46.5614 175.192 46.2832C175.307 45.83 175.415 45.4014 175.545 45.0444C175.594 44.9076 175.645 44.7714 175.694 44.6423L175.88 44.599C176.556 44.4428 177.235 44.286 177.911 44.1472C178.588 44.0047 179.273 43.9073 179.962 43.8554C180.439 43.8231 180.707 43.8412 180.849 43.8618C180.894 43.9638 180.947 44.0942 180.99 44.2001L181.009 44.2472C181.125 44.5325 181.188 44.752 181.198 44.9173C181.214 45.1445 181.227 45.3711 181.24 45.597C181.274 46.2361 181.312 46.8958 181.403 47.5942L181.409 47.7285C181.452 48.7265 181.533 50.5836 183.126 51.5713C184.017 52.1251 185.097 52.191 186.086 51.752C187.703 51.0355 188.089 49.4262 188.234 48.8207C188.243 48.788 188.25 48.7548 188.255 48.7213C188.511 47.9699 188.6 47.2592 188.653 46.6653C188.702 46.1263 188.851 45.5131 189.011 44.8637C189.058 44.6713 189.105 44.479 189.15 44.2872C189.314 43.5901 189.427 42.9078 189.537 42.2487L189.599 41.8788C189.757 40.9441 189.954 39.7809 189.815 38.5305C189.694 37.4434 189.339 36.6746 188.898 36.1305C189.03 36.0762 189.165 36.0285 189.293 35.9659C191.855 34.6968 193.146 31.7132 192.224 29.1582C191.994 28.5304 191.625 27.963 191.144 27.4986C190.664 27.0342 190.084 26.6848 189.45 26.4767C188.775 26.2553 188.058 26.1877 187.354 26.2787C186.649 26.3697 185.973 26.6171 185.376 27.0028H185.375C185.287 27.0608 185.201 27.1224 185.118 27.1874C185.203 26.7265 185.29 26.274 185.39 25.8344L185.466 25.4936C185.503 25.3258 185.54 25.1592 185.579 24.9933C185.653 24.6802 185.721 24.3652 185.79 24.0496C185.885 23.6054 185.975 23.1871 186.08 22.796C186.273 22.0736 186.413 21.3745 186.549 20.698C186.598 20.4598 186.644 20.2255 186.692 19.997C186.859 20.1797 187.045 20.343 187.253 20.485C187.599 20.7228 187.989 20.8873 188.4 20.9683C188.812 21.0493 189.235 21.0452 189.645 20.9562C190.209 20.8362 191.981 20.2591 192.153 17.7474L192.154 17.7293C192.167 17.6428 192.19 17.5221 192.215 17.3826C192.469 15.9593 192.608 15.0407 192.265 14.1292V14.1279Z" fill="#FFFFFE"/>
<path fill-rule="evenodd" clip-rule="evenodd" d="M165.667 52.8787C172.527 85.2987 151.847 117.15 119.476 124.02C87.105 130.89 55.3025 110.178 48.4433 77.757C41.5834 45.3371 62.2641 13.4865 94.6349 6.61691C127.006 -0.253356 158.808 20.4588 165.668 52.8787" fill="white"/>
</g>
<path fill-rule="evenodd" clip-rule="evenodd" d="M94.7152 6.92743C91.9215 7.74531 89.1246 8.33725 86.503 9.37847C80.7642 11.6572 81.2262 10.8018 84.3961 15.9654C84.467 16.0803 84.6455 16.128 84.8903 16.2797C88.9352 14.2276 94.779 14.2431 94.7159 6.92743H94.7152ZM79.33 12.2581L67.6264 21.2179C69.2468 22.1307 70.3659 22.8046 71.5263 23.394C71.9644 23.6161 72.6706 23.9111 72.9644 23.72C76.1698 21.6362 79.3172 19.4621 82.6114 17.2235L79.33 12.2581ZM95.8228 11.9638C108.422 8.71165 120.744 8.64968 133.081 12.151C131.571 11.1569 130.045 10.2699 128.429 9.60505C120.114 6.18121 111.449 5.14903 102.534 5.87007C98.0797 6.23156 97.15 6.99457 95.8228 11.9638ZM53.6599 39.9115C51.9345 31.1028 74.3561 10.3545 90.6793 5.96819C105.236 2.05699 119.517 2.85227 133.126 9.8142C137.855 12.233 142.548 14.8286 146.345 18.6204L145.903 19.4996C145.099 19.2646 144.242 19.1407 143.499 18.7792C128.79 11.6171 113.504 10.0517 97.6603 13.9578C96.9149 14.1418 95.6978 14.7879 95.7081 15.192C95.7319 16.0912 96.1746 17.2441 96.8466 17.8012C97.9535 18.7178 99.3174 19.4131 100.679 19.9037C105.63 21.6885 110.632 23.3249 115.595 25.0756C116.681 25.4584 117.682 26.0806 118.723 26.5925L118.485 27.424C117.813 27.3723 117.096 27.4556 116.476 27.2484C110.75 25.3383 105.03 23.4088 99.331 21.4193C96.4961 20.4304 93.8351 19.1574 93.098 15.4567C90.9203 16.374 88.9642 17.0705 87.166 18.0581C86.7839 18.2686 86.657 19.7145 86.9617 20.3013C88.7529 23.7516 90.7225 27.107 92.5916 30.5167C92.9692 31.2048 93.1754 31.9884 93.4601 32.7282L92.7952 33.2265C92.1896 32.5797 91.4589 32.011 91.0008 31.2713C88.9951 28.0327 87.0255 24.7683 85.1313 21.4613C84.3246 20.0515 83.487 19.5286 82.0032 20.5292C80.9157 21.2625 79.6844 21.7763 78.5878 22.498C77.2966 23.3469 75.5325 24.0731 74.9991 25.3034C74.539 26.3647 75.5184 28.0592 75.8579 29.4748C76.365 31.5895 76.6871 33.6649 74.2936 35.9235C74.1673 32.6107 74.6305 29.7201 72.1371 27.2368L61.492 38.4643L60.6087 37.9169C60.9856 37.0674 61.1937 36.0707 61.7697 35.3929C64.133 32.6127 66.6071 29.9267 69.0438 27.2097C69.4987 26.7029 69.969 26.211 70.4329 25.7121C67.2037 22.7298 66.0246 22.5729 63.6292 25.7598C60.7942 29.5297 58.3717 33.6171 55.8235 37.6006C55.2681 38.4675 54.9324 39.4771 54.4962 40.4215L53.6599 39.9122V39.9115ZM122.127 82.3803L140.78 114.747C152.25 106.773 159.684 96.239 164.361 83.4925C164.59 87.0442 163.134 90.051 161.687 92.992C154.444 107.712 143.101 117.936 127.679 123.418C112.196 128.922 96.9954 127.904 82.2732 120.62C75.3676 117.203 69.0309 112.98 64.5189 106.345C76.4887 116.969 89.9597 123.938 106.344 124.356C95.4407 114.873 89.3366 110.95 83.1134 97.8398L83.9477 97.1252C84.5018 97.7282 85.2221 98.2439 85.5849 98.9456C91.5601 110.485 96.4864 113.396 106.4 121.631C109.147 123.914 111.882 124.734 115.514 124.132C123.057 122.881 130.24 120.804 136.972 117.127C138.788 116.134 139.174 115.295 138.066 113.39C132.823 104.368 127.717 95.2661 122.585 86.1792C122.005 85.1515 121.565 84.0431 121.06 82.9722L122.127 82.3803Z" fill="black"/>
<path fill-rule="evenodd" clip-rule="evenodd" d="M38.452 55.9308C39.3218 56.7306 40.1774 57.5755 40.8926 58.5154C41.4834 59.2907 42.0266 60.1195 42.3468 61.0355C42.4344 61.2847 42.7946 62.2672 42.8687 62.5441C42.9718 62.9301 43.0607 63.3181 43.1361 63.7099C43.2185 64.1353 43.3036 64.5601 43.3925 64.9835C43.453 65.2714 43.551 65.7039 43.9472 65.6316C44.3499 65.5587 44.319 64.999 44.366 64.6834C44.4459 64.154 44.6115 63.686 44.7687 63.1767C44.9092 62.7216 45.0458 62.2665 45.1862 61.8114C45.529 60.6992 45.8138 59.5999 46.1159 58.476C46.3666 57.5484 47.0985 54.4996 47.0714 53.9322C47.0521 53.5159 47.3214 52.8529 46.7912 52.6593C46.3633 52.5037 46.1192 52.9388 45.9214 53.2357C45.7062 53.5604 45.4819 53.8741 45.23 54.1717C44.5284 55.0019 43.7597 55.7513 42.7218 56.1276C42.2843 56.2871 41.4802 56.4097 41.1175 56.0612C40.8121 55.7674 40.4964 55.486 40.1819 55.2013C38.7194 53.8741 37.0938 52.6838 35.3085 51.8182C34.4922 51.4219 33.6644 51.0501 32.826 50.7033C32.1095 50.4077 31.2829 50.3018 30.5226 50.1779C29.542 50.0184 28.5723 50.1637 27.5911 50.1895C26.7793 50.2108 26.001 50.3186 25.2065 50.4755C23.1074 50.8899 21.1591 51.8136 19.2777 52.8071C18.2404 53.3551 17.2031 53.9116 16.2521 54.601C15.3525 55.253 14.5029 55.9716 13.7103 56.7506C12.0442 58.3902 10.6873 60.2525 9.3523 62.1574C9.02758 62.6216 8.70929 63.0876 8.44126 63.5873C8.15777 64.1153 7.94644 64.6737 7.70805 65.2224C7.4265 65.8724 7.09146 66.4973 6.80475 67.1447C6.00582 68.9503 5.38407 71.3374 4.9685 73.2513C4.522 75.306 4.40152 76.9644 4.15475 79.0533C3.89668 81.2028 3.8889 83.3752 4.13156 85.5265C4.26557 86.7027 4.45822 87.8743 4.69918 89.0337C4.80678 89.5527 5.18047 91.7216 5.31127 92.2813C5.56834 93.387 5.98391 94.4367 6.41108 95.4856C6.80346 96.4475 7.2229 97.4009 7.70676 98.3207C8.7647 100.328 10.1274 102.155 11.858 103.636C12.6011 104.28 13.3863 104.873 14.2084 105.412C15.1349 106.012 16.0794 106.606 17.1142 107.005C19.0709 107.76 21.065 108.043 23.1474 108.197C25.2639 108.353 27.3005 108.098 29.3552 107.587C29.9164 107.448 30.4753 107.3 31.0316 107.142C31.2642 107.075 32.9761 106.211 33.1146 106.144C33.3865 106.014 33.634 105.837 33.9116 105.72C34.4329 105.494 35.0215 105.48 35.5533 105.68C35.849 105.787 36.3877 106.443 36.4772 106.691C36.5919 107.009 36.715 107.295 36.8445 107.901C36.9431 108.366 36.8664 108.767 36.8484 109.013C36.8316 109.24 36.7839 109.528 36.8754 109.745C37.0474 110.151 37.6383 110.551 37.9797 109.247C38.0551 108.958 38.8154 106.094 39.115 104.944C39.4268 103.749 39.6047 102.602 39.8488 101.392C39.9642 100.82 40.6033 98.5641 40.7573 97.9683C40.8655 97.55 41.0479 96.623 41.015 96.1634C40.9841 95.74 40.2889 95.7012 39.8939 96.0046C39.5325 96.2822 39.3192 96.8729 39.0873 97.2569C38.7838 97.7592 38.4385 98.2394 38.0951 98.7158C37.4231 99.6492 36.7259 100.647 35.8375 101.386C34.9325 102.142 33.952 102.802 32.9117 103.356C31.846 103.919 30.8699 104.434 29.7443 104.856C28.651 105.266 27.7341 105.634 26.5699 105.792C26.3044 105.827 25.6563 105.839 25.3985 105.775C25.137 105.709 24.8657 105.558 24.6292 105.431C24.155 105.178 23.7214 104.851 23.3052 104.515C22.6082 103.957 21.9427 103.361 21.3118 102.73C19.7751 101.173 18.4691 99.2277 17.5922 97.2272C16.6638 95.1106 16.2598 92.7964 15.8333 90.5397C15.4261 88.3791 15.2109 86.2276 15.2367 84.0289C15.2612 81.9233 15.3977 80.0738 15.8404 78.0243C16.1239 76.7107 16.5098 75.2912 16.7682 73.9724C17.187 71.8306 17.955 69.6022 18.6109 67.5172C19.2049 65.6297 19.8698 63.7829 20.6958 61.9812C21.6133 59.9801 22.5623 57.9913 23.7794 56.1483C24.3799 55.2394 25.0068 54.3254 25.818 53.5895C26.1826 53.259 26.5634 52.9149 27.0035 52.6883C27.4996 52.434 28.0221 52.2565 28.5627 52.1235C29.1039 51.9905 29.6915 51.8491 30.2507 51.8685C30.7842 51.8872 31.3222 51.9395 31.8492 52.015C32.6823 52.1358 33.5734 52.6264 34.3266 52.9969C35.1352 53.3952 35.8555 53.9245 36.5739 54.4609C37.2117 54.9367 37.8451 55.415 38.452 55.9308Z" fill="black"/>
<path fill-rule="evenodd" clip-rule="evenodd" d="M65.7346 76.9542C65.8532 78.1781 65.8815 79.3839 65.7823 80.6104C65.6548 82.1835 65.4859 83.7663 65.1741 85.313C64.995 86.2006 64.9338 87.1056 64.7592 87.9938C64.5904 88.8556 64.3333 89.6851 64.0356 90.5107C63.5073 91.9773 62.9107 93.424 61.9249 94.6485C60.8882 95.935 59.8245 96.4482 57.9451 97.1415C56.5921 97.4475 54.9124 97.6321 53.7456 96.6509C52.3236 95.4541 51.658 93.5892 51.2682 91.8289C50.9835 90.543 50.7412 89.2177 50.7824 87.8951C50.834 86.22 50.986 84.5803 51.2334 82.9246C51.6935 79.848 52.2965 76.7482 53.5123 73.8731C54.174 72.3071 55.1244 70.8818 56.2139 69.5804C56.7538 68.9355 57.3259 68.2939 58.0727 67.8827C58.3922 67.7071 58.7479 67.5341 59.1177 67.5147C59.3303 67.5031 59.6248 67.5025 59.8348 67.5315C59.8954 67.5399 60.7742 67.7445 60.9598 67.8246C61.1807 67.9188 61.4552 68.1744 61.6376 68.33C61.9713 68.614 62.2393 68.9 62.5351 69.2215C63.1098 69.8463 63.5067 70.5771 63.9145 71.3259C64.3816 72.1818 64.7006 73.1295 65.0304 74.0442C65.3734 74.9846 65.6096 75.9608 65.7346 76.9542ZM71.3665 89.8194C72.1312 88.1668 72.6718 86.4665 73.1705 84.7172C73.6015 83.2015 73.9694 81.7129 74.0706 80.1372C74.1324 79.156 74.202 78.1439 74.1788 77.1614C74.1569 76.2254 73.9907 75.3036 73.7826 74.3882C73.3883 72.6505 72.637 70.9909 71.5198 69.6004C70.8938 68.829 70.2289 68.0903 69.5276 67.3869C68.9078 66.7608 68.2113 66.2411 67.4672 65.766C66.8104 65.3531 66.1123 65.0104 65.3842 64.7435C64.5485 64.4337 63.7637 64.18 62.8869 64.0283C61.9977 63.8746 61.0261 63.6293 60.1222 63.6636C59.2691 63.6958 58.3826 63.7798 57.5495 63.9624C56.6288 64.1583 55.7323 64.4542 54.8757 64.8449C54.4697 65.0288 54.0046 65.2393 53.5987 65.4271C53.176 65.6234 52.7752 65.8674 52.3874 66.1249C50.8217 67.1629 49.3888 68.5301 48.1737 69.9574C47.5719 70.6649 46.8664 71.4195 46.3561 72.1954C45.8555 72.9571 45.3703 73.6052 44.8523 74.3592C43.8794 75.7722 43.1088 77.335 42.5296 78.9508C42.0123 80.3935 41.5857 81.6684 41.4047 83.0801C41.2694 84.1304 41.3319 85.1135 41.3957 86.1102C41.4562 87.0514 41.6096 87.9835 41.8402 88.8989C42.2526 90.5333 42.71 92.1297 43.3724 93.6776C43.748 94.5543 44.3259 95.4154 44.8401 96.221C45.2943 96.9336 45.8716 97.5546 46.5049 98.1117C47.155 98.6836 47.8696 99.2472 48.6401 99.6493C49.5022 100.099 50.4049 100.379 51.3468 100.609C52.225 100.825 53.129 101.004 54.0323 101.069C54.5052 101.103 55.2758 101.118 55.7461 101.069C56.1462 101.028 57.5115 100.906 57.9419 100.84C58.4554 100.761 59.1016 100.644 59.6074 100.527C60.577 100.301 61.3251 99.9753 62.1987 99.4886C63.0499 99.0142 63.8365 98.4467 64.5942 97.8361C64.9744 97.5301 65.3287 97.197 65.705 96.8859C66.0471 96.6025 66.3957 96.3307 66.7011 96.0151C66.9485 95.7594 67.2165 95.4786 67.4813 95.2404C67.8351 94.9228 68.1243 94.5982 68.4413 94.2451C69.0786 93.5382 69.6269 92.7558 70.1391 91.956C70.5791 91.2686 71.0218 90.5617 71.3665 89.8194ZM125.487 53.7122C126.036 53.6793 126.462 53.7297 126.936 54.0201C127.393 54.2996 127.784 54.6398 127.944 55.173C128.267 56.2582 128.415 57.4646 128.512 58.5898C128.557 59.1075 128.534 59.609 128.534 60.1261C128.534 60.3204 128.539 60.5347 128.702 60.6683C128.861 60.7987 129.065 60.7768 129.208 60.6341C129.511 60.3327 129.576 59.6659 129.663 59.2656C129.71 59.0539 130.476 55.5023 130.751 54.2938C130.898 53.6354 131.068 52.9822 131.259 52.3353C131.373 51.9571 131.541 51.553 131.525 51.1514C131.503 50.6383 131.119 50.2303 130.634 50.1251C129.821 49.9482 126.165 50.9559 125.181 51.1908C124.313 51.398 120.561 52.2004 119.555 52.4109C118.51 52.6303 117.451 52.7846 116.415 53.0473C115.344 53.3204 114.266 53.5366 113.191 53.7942C112.073 54.0621 110.951 54.3042 109.82 54.5023C109.325 54.5888 108.841 54.6786 108.363 54.8406C108.162 54.9084 107.459 55.1853 107.396 55.4248C107.188 56.1981 108.583 55.8179 108.864 56.1587C109.066 56.404 108.999 57.0134 108.995 57.3207C108.989 57.7977 109.004 58.276 108.934 58.7499C108.794 59.7026 108.723 60.6735 108.545 61.6192C108.402 62.3732 108.233 63.131 108.136 63.8934C108.093 64.2323 108.06 64.5724 108.015 64.9107C108.024 64.9026 108.031 64.894 108.039 64.8849C107.884 65.6505 107.834 66.4361 107.698 67.2062C107.542 68.0905 107.331 68.9639 107.187 69.8509C106.989 71.0721 106.822 72.2982 106.686 73.5277C106.597 74.3108 106.543 75.0938 106.479 75.8794C106.416 76.6669 106.296 77.4499 106.231 78.2381C106.143 79.3039 105.497 84.3557 105.184 85.7991C105.032 86.4995 104.952 87.2082 104.758 87.8989C104.514 88.782 103.931 89.4056 103.256 89.9904C103.043 90.1757 102.792 90.3306 102.637 90.574C102.416 90.9213 102.554 91.295 102.956 91.386C103.315 91.468 103.711 91.3718 104.066 91.3099C104.416 91.2498 104.766 91.184 105.117 91.1272C106.009 90.982 113.491 89.1074 113.815 89.0163C114.002 88.9634 114.2 88.9382 114.389 88.8924C114.632 88.8343 114.91 88.7685 115.09 88.5819C115.369 88.2927 115.282 87.8622 114.966 87.642C114.692 87.451 114.344 87.4187 114.054 87.267C113.669 87.0649 113.482 86.6834 113.412 86.2664C113.355 85.9243 115.482 70.0865 115.491 70.0122C115.466 69.9025 115.509 69.8631 115.617 69.8922C115.804 69.8167 116.116 69.8554 116.318 69.8405C116.505 69.827 116.692 69.8128 116.878 69.7966C117.181 69.7702 117.482 69.7366 117.784 69.703C118.277 69.6488 118.785 69.5533 119.281 69.5875C119.644 69.6127 120.02 69.7411 120.17 70.0981C120.312 70.4364 120.361 70.8062 120.46 71.1567C120.548 71.4679 120.735 72.8499 121.263 72.5924C121.607 72.4245 121.665 71.73 121.71 71.4046C121.759 71.0406 121.818 70.6771 121.859 70.3118C122.058 68.5734 122.529 66.8841 122.691 65.1366C122.715 64.8875 122.869 64.1735 122.607 63.9986C122.29 63.7856 122.05 64.4498 121.954 64.6447C121.573 65.4194 121.209 66.245 120.646 66.906C120.381 67.2178 120.053 67.5199 119.705 67.7336C119.392 67.9253 119.044 67.9485 118.689 67.9956C118.296 68.0486 117.901 68.1022 117.507 68.1506C116.907 68.2248 116.312 68.261 115.704 68.3119C115.848 67.5935 116.254 64.0309 116.285 63.6707C116.38 62.5668 116.577 61.463 116.74 60.3675C116.839 59.7014 116.887 59.0274 116.947 58.3574C116.996 57.8152 117.025 57.2142 117.169 56.6907L117.15 56.7255C117.217 56.4028 117.248 55.845 117.444 55.5842C117.628 55.3389 117.968 55.1614 118.237 55.0317C118.584 54.8614 118.949 54.7302 119.325 54.6405C119.7 54.554 120.099 54.5353 120.479 54.4649C121.305 54.3138 122.115 54.1344 122.951 54.0343C123.796 53.9336 124.64 53.8007 125.487 53.7116V53.7122ZM96.7299 58.664C97.4244 58.6253 98.148 58.8306 98.7775 59.1159C99.1112 59.2669 99.4411 59.4528 99.7104 59.7046C99.867 59.8511 99.9385 59.9357 99.9758 60.1532L100.002 60.3088C100.105 60.8943 100.101 63.4344 100.028 63.743C99.9159 64.2148 99.597 65.1444 100.278 65.3503C100.942 65.5511 101.19 64.6577 101.31 64.1884C101.581 63.131 101.716 62.0188 101.942 60.9498C102.023 60.5657 102.065 60.1739 102.192 59.8033C102.277 59.5542 102.344 59.2985 102.414 59.0449C102.562 58.5039 102.65 57.9481 102.82 57.4149C102.98 56.9159 103.416 56.0219 103.007 55.5494C102.646 55.1337 102 55.2731 101.542 55.3796C100.998 55.5061 100.484 55.7088 99.9359 55.8198C99.376 55.9322 98.8245 56.0813 98.2704 56.2181C97.514 56.404 96.773 56.6216 96.0083 56.7681C95.632 56.8391 95.257 56.9146 94.8807 56.985C92.8679 57.3607 90.8796 57.8913 88.8727 58.2986C86.7336 58.7331 84.6242 59.3328 82.4632 59.6646C81.3086 59.8421 79.9955 59.9279 78.9324 60.4682C78.7057 60.5838 78.3655 60.7755 78.5265 61.0802C78.6605 61.3332 78.9788 61.2971 79.1889 61.4223C79.5613 61.6431 79.9801 62.0614 80.1141 62.4719C80.2623 62.9257 80.3905 63.3763 80.3383 63.8585C80.2926 64.2807 80.2352 64.7022 80.174 65.1231C80.0503 65.9765 79.9421 66.8273 79.79 67.6768C79.6083 68.6941 79.4846 69.7179 79.2823 70.7326C79.0078 72.1108 78.696 73.4742 78.4866 74.864C78.1129 77.3505 77.7173 79.8287 77.2934 82.3068C77.122 83.3074 75.1369 94.0462 74.8006 94.868C74.5216 95.549 73.8811 95.782 73.3348 96.1977C73.1157 96.3649 72.8406 96.5805 72.9037 96.8981C72.9766 97.2622 73.3657 97.2467 73.6511 97.208C74.0609 97.1499 74.4552 97.0247 74.8579 96.9356C75.5061 96.7923 83.3362 95.3463 83.8703 95.254C84.3677 95.1681 85.2575 95.0868 85.5223 94.8518C85.7208 94.675 85.713 94.3903 85.5455 94.1857C85.3728 93.9746 85.0893 93.9352 84.8387 93.8842C84.6255 93.8403 84.407 93.8048 84.2408 93.6538C83.9412 93.3839 83.7982 92.945 83.7518 92.5577C83.6803 91.9548 83.7067 91.3092 83.7872 90.7076C83.8787 90.0298 83.9689 89.352 84.0855 88.6781C84.1976 88.03 84.465 86.3542 84.4863 86.2748C84.5211 86.1496 84.6564 85.4402 84.7073 85.2142C84.9914 83.9542 85.1931 82.6851 85.4411 81.4186C85.5996 80.6078 86.1492 78.2697 86.2375 77.9082C86.3812 77.3234 86.4237 76.5953 86.8335 76.1311C86.9643 75.9827 87.144 75.636 87.3006 75.5392C87.4591 75.4404 87.7967 75.4527 87.9771 75.4191C88.2412 75.3694 88.5054 75.3107 88.7696 75.259C89.2116 75.1725 89.6561 75.1067 90.0968 75.0182C90.2792 74.9821 90.4609 74.9453 90.6432 74.9124L90.8764 74.8717C91.0021 74.8498 91.3906 74.7039 91.4937 74.7607C91.5723 74.8046 91.647 75.0841 91.6837 75.1841C91.7353 75.3262 91.7656 75.4656 91.7759 75.6166C91.7978 75.9575 91.7243 76.2854 91.6889 76.6211C91.6541 76.9503 91.4982 78.2375 92.1399 77.9767C92.6921 77.7533 93.0303 76.836 93.2043 76.3196C93.3544 75.871 93.482 75.4069 93.5921 74.9453C93.727 74.3566 93.8419 73.7634 93.9368 73.1669C94.0612 72.4284 94.2416 71.6506 94.1288 70.8979C94.0573 70.4183 93.692 69.5759 93.259 70.2989C92.9131 70.8785 92.8493 71.6015 92.4472 72.1502L92.4859 72.1108C92.2417 72.4142 92.0387 72.7473 91.8094 73.0617L91.8313 73.0423C91.7759 73.1133 91.725 73.1908 91.6638 73.2573C91.4982 73.438 91.2173 73.5284 90.9892 73.6091C90.6851 73.7162 90.3417 73.753 90.0234 73.8247C89.2154 74.0067 88.2 74.3456 87.4533 73.8382C87.3985 73.8007 87.344 73.7628 87.2896 73.7246C87.1588 73.6336 87.117 73.6246 87.1112 73.4709C87.1008 73.1934 87.2046 72.868 87.2432 72.593C87.2967 72.2077 87.3495 71.8236 87.383 71.4363C87.4539 70.6358 87.5287 69.838 87.615 69.0394C87.8392 66.9802 88.0995 64.9017 88.7026 62.9135C88.9538 62.0866 89.2122 61.2674 89.486 60.4476C89.5466 60.2662 89.5614 60.1506 89.7238 60.0712C89.8114 60.028 89.9138 60.0047 90.006 59.9705C90.4609 59.8027 90.908 59.642 91.3816 59.5348C92.9652 59.1778 94.5644 58.9229 96.1764 58.7144L96.1043 58.7176C96.313 58.6982 96.5211 58.6776 96.7299 58.6647V58.664ZM154.447 69.7282C154.411 69.5927 154.311 69.4887 154.157 69.5152C154.041 69.5359 153.429 69.144 153.093 70.3795C152.779 71.5363 149.809 75.9213 148.857 76.9858C148.31 77.6008 147.728 78.1834 147.113 78.7306C146.555 79.2257 145.992 79.6705 145.284 79.9313C144.635 80.1701 143.946 80.3257 143.272 80.4735C142.424 80.6607 140.78 81.0442 140.802 81.0255C140.438 81.0255 139.889 81.1274 139.488 80.9441C139.319 80.8667 139.167 80.4535 139.1 80.2863C138.803 79.5485 139.04 78.6558 139.031 77.8805C139.025 77.2505 139.124 76.6282 139.186 76.0027C139.27 75.1506 140.451 68.2823 140.503 67.7665C140.557 67.2436 140.643 66.7207 140.719 66.2011C140.741 66.0591 140.73 65.8693 140.831 65.7893C140.934 65.7079 141.158 65.6814 141.29 65.6369C141.789 65.4691 142.301 65.3471 142.812 65.2212C143.263 65.1102 143.723 65.0353 144.184 64.983C144.376 64.9617 144.55 64.9184 144.713 64.9907C144.919 65.0811 145.046 65.2586 145.115 65.4684C145.268 65.9268 145.275 66.4877 145.305 66.9686C145.329 67.3417 145.312 67.7148 145.332 68.0873C145.351 68.4385 145.287 68.96 145.572 69.217C145.868 69.4842 146.225 69.2796 146.401 68.991C146.787 68.3623 146.837 67.4579 146.963 66.7433C147.115 65.8887 147.283 65.0392 147.441 64.1858C147.7 62.785 148.15 61.3875 148.236 59.9615C148.255 59.6549 148.312 59.0216 148.047 58.7931C147.73 58.5194 147.404 58.9932 147.252 59.2204C146.712 60.0209 146.511 60.9763 146.086 61.8309C145.878 62.2505 145.577 62.6766 145.189 62.9457C144.791 63.2214 144.322 63.2982 143.854 63.3802C143.252 63.4847 142.655 63.6197 142.054 63.7365C141.726 63.8011 141.403 63.883 141.079 63.967C141.385 62.6114 142.889 56.7436 143.313 55.1382C143.505 54.4191 143.659 53.689 143.859 52.9725C144.068 52.2256 144.226 51.4452 144.488 50.7164C144.625 50.3368 145.03 49.2562 145.201 49.0535C145.273 48.9677 145.839 48.763 145.941 48.7075C146.078 48.6333 146.322 48.6184 146.472 48.5836C147.281 48.397 148.091 48.2059 148.904 48.04C149.699 47.873 150.503 47.7592 151.312 47.6992C152.372 47.6256 153.653 47.6669 154.418 48.5229C154.753 48.8986 154.933 49.3569 155.12 49.8178C155.32 50.311 155.471 50.8151 155.507 51.349C155.565 52.2004 155.586 53.0493 155.7 53.8968C155.754 54.2971 155.661 56.1678 156.479 55.805C156.943 55.5984 156.992 54.8496 157.133 54.4333C157.285 53.9853 157.349 53.5102 157.392 53.0286C157.476 52.0946 157.736 51.1799 157.95 50.2703C158.122 49.5409 158.238 48.7805 158.363 48.042C158.504 47.2022 158.651 46.332 158.556 45.4793C158.508 45.0481 158.398 44.5 157.948 44.3193C157.566 44.165 155.291 44.786 154.561 44.9454C153.749 45.1236 152.935 45.2882 152.127 45.4825C151.803 45.56 144.434 47.117 143.445 47.3029C142.566 47.4675 137.225 48.3254 136.764 48.3525C136.526 48.3667 136.007 48.3196 135.989 48.6881C135.983 48.785 136.003 48.8817 136.047 48.9683C136.071 48.9857 136.163 49.1032 136.213 49.1374C136.396 49.2665 136.727 49.5557 136.792 49.6635C136.913 49.8617 137.011 50.0676 137.078 50.2897C137.187 50.6479 137.085 50.9029 136.988 51.2496C136.798 51.9177 136.599 52.5832 136.426 53.2565C136.038 54.767 135.749 56.2969 135.418 57.8203C135.058 59.4825 134.578 61.1189 134.242 62.785C133.993 64.0199 133.834 65.2877 133.68 66.5374C133.565 67.4728 133.335 68.3771 133.151 69.2996C133.009 70.0409 132.889 70.7864 132.792 71.535C132.672 72.4213 132.534 73.3063 132.26 74.1597C132.086 74.6981 131.169 80.3173 131.114 81.0113C131.091 81.3463 131.054 81.6801 131.001 82.0118C130.942 82.3636 130.952 82.8426 130.687 83.1157C130.332 83.4766 129.966 83.8269 129.59 84.1659C129.369 84.366 129.101 84.5532 128.992 84.8424C128.84 85.2465 129.101 85.5951 129.516 85.6073C130.181 85.6261 130.891 85.3388 131.528 85.1587C132.2 84.9689 132.877 84.8282 133.562 84.6965C134.824 84.4532 143.757 82.4856 145.303 82.0673C145.976 81.8859 146.648 81.7091 147.334 81.5845C148.062 81.4528 148.77 81.2507 149.506 81.1636C150.455 81.0483 151.4 80.8954 152.337 80.7053C152.69 80.6356 152.976 80.4826 153.192 80.1824C153.4 79.8939 153.538 78.6435 153.565 78.3446C153.603 77.9192 153.747 75.4462 153.876 74.6464C154.025 73.722 154.52 69.9987 154.447 69.7282ZM64.7914 46.2094C64.8436 47.7153 63.9023 49.0929 62.6427 49.8675C62.1884 50.147 61.7258 50.2729 61.2252 50.4291C60.8238 50.5543 60.4405 50.7499 60.0352 50.8532C59.61 50.9617 59.1802 51.0585 58.7621 51.1941C59.1248 50.0257 59.3368 48.8005 59.6261 47.6114C59.867 46.6225 60.0597 45.5554 60.5893 44.6691C60.8161 44.2889 61.2336 43.8003 61.6717 43.6912C62.1846 43.5627 62.6433 43.5169 63.1613 43.6357C63.6877 43.757 64.0981 44.0049 64.3649 44.4826C64.6606 45.0119 64.7392 45.6122 64.7914 46.2094ZM63.4345 52.8621C63.4659 53.694 63.4104 54.527 63.2689 55.3473C63.1149 56.2259 62.709 57.0902 62.0203 57.6686C61.3631 58.2192 60.4933 58.6601 59.677 58.9132C58.9515 59.1378 58.1803 59.1959 57.4412 59.3689C57.5495 57.8648 57.7763 56.3395 58.0566 54.8587C58.2002 54.0982 58.2498 53.3159 58.4135 52.5632C58.4509 52.3928 58.4476 52.1953 58.5836 52.1126C58.6847 52.0513 58.9012 52.0371 59.0204 52.0081C59.5472 51.8836 60.0714 51.748 60.5925 51.6014C61.1202 51.451 61.8122 51.1689 62.3514 51.3793C63.0138 51.6382 63.3565 52.1752 63.4345 52.8621ZM68.067 43.9494C67.9175 43.6886 67.7616 43.4181 67.529 43.2309C67.2935 43.0341 67.0461 42.8522 66.7881 42.6861C66.2494 42.3524 65.5594 42.3408 64.9467 42.3672C64.1581 42.4014 60.4707 43.1793 59.9662 43.2813C59.3948 43.3955 58.8226 43.5001 58.2544 43.626C57.5115 43.7912 56.7615 43.919 56.0251 44.1127C55.7345 44.1889 54.6038 44.3496 55.1308 44.7556C55.172 44.7879 55.2287 44.8053 55.279 44.8479C55.3479 44.9041 55.4046 44.9919 55.4639 45.0584C55.5515 45.1565 55.6411 45.252 55.7313 45.3469C55.9516 45.5806 56.0567 45.7162 56.0232 46.0454C55.9652 46.6199 55.7455 47.1963 55.5915 47.7496C55.4961 48.0897 55.4014 48.4293 55.3073 48.7695C55.1443 49.3569 54.9968 49.943 54.8744 50.5401C54.6746 51.5149 54.3976 52.4683 54.1914 53.4405C53.9685 54.4914 53.7907 55.5591 53.5297 56.6016C53.3074 57.4859 53.0362 58.3587 52.8152 59.243C52.7392 59.5497 52.6902 59.8627 52.6329 60.1732C52.5336 60.7084 52.0627 60.9427 51.7205 61.3081C51.5749 61.4636 51.6084 61.6896 51.8417 61.7212C51.9583 61.7373 52.149 61.6754 52.2637 61.6495C52.6825 61.5559 53.0916 61.4236 53.5072 61.3203L53.8673 61.2293C53.9111 61.2183 53.9723 61.1893 54.0162 61.1919C54.1283 61.199 55.5625 60.8885 55.8157 60.8368C56.0515 60.7897 57.8156 60.3824 58.0366 60.3333C58.3213 60.267 58.6082 60.2104 58.8967 60.1635C59.7852 60.028 60.6672 59.9215 61.5435 59.7156C62.7947 59.4218 64.1271 59.2121 65.3081 58.6885C65.7881 58.4704 66.2504 58.2151 66.6908 57.9249C66.9279 57.7706 67.1366 57.5924 67.279 57.3452C67.3383 57.2432 67.5058 57.0457 67.5367 56.9308C67.5683 56.8204 67.75 56.2659 67.8312 56.0548C67.9298 55.7979 67.9201 55.5042 67.9691 55.2331C68.0432 54.8245 68.0374 54.3719 68.0193 53.9607C67.9613 52.6168 67.6862 51.3135 66.5407 50.4769C66.0871 50.1457 65.5768 49.9973 65.0201 49.9592C65.3745 49.8042 65.7256 49.5286 66.0285 49.2988C66.6006 48.8657 67.0999 48.295 67.5078 47.7063C68.2229 46.6728 68.7512 45.1352 68.0664 43.9494H68.067ZM85.6499 37.8395C85.7691 37.6891 85.8406 37.458 85.7137 37.2915C85.5816 37.1185 85.3806 37.2224 85.1918 37.2508C84.6873 37.3276 83.3156 37.6465 83.199 37.6543C82.9219 37.6717 82.5573 37.7795 82.2815 37.8092C81.8601 37.8544 81.2912 37.939 80.9401 38.203C80.6353 38.4308 80.6708 38.7594 81.0367 38.9305C81.462 39.1306 82.0115 38.9466 82.4606 39.0873C83.1178 39.2926 82.7853 40.4978 82.748 41.0136C82.7074 41.5674 81.8679 46.252 81.6243 47.2971C81.402 48.2537 81.221 49.2097 80.8776 50.1335C80.5168 51.1043 80.0561 52.0248 79.4176 52.8434C78.8493 53.5728 78.022 54.4404 77.0176 54.4268C76.7808 54.4198 76.5473 54.3699 76.3282 54.2796C76.2298 54.2411 76.1323 54.2004 76.0357 54.1576C75.9384 54.1157 75.546 53.4785 75.5306 53.3346C75.5048 53.0958 75.4829 52.8563 75.4648 52.6161C75.3998 51.7453 75.4507 50.6796 75.49 49.7436C75.5299 48.7837 75.5847 47.818 75.68 46.862C75.805 45.6116 76.0009 44.3677 76.1736 43.1225C76.2251 42.7442 76.3056 42.373 76.3797 41.9986C76.4558 41.6178 76.5002 41.1678 76.7431 40.8477C77.0215 40.4804 78.5858 39.7658 77.8494 39.1712C77.5891 38.9615 77.2296 39.0589 76.9313 39.1054C76.6671 39.1467 76.4036 39.2139 76.1246 39.2532C75.2664 39.3739 74.4269 39.6212 73.577 39.7935C72.954 39.9201 72.3496 39.9995 71.735 40.1641C71.5301 40.2189 70.8993 40.3009 70.967 40.6372C70.9844 40.7231 71.052 40.7689 71.0714 40.8528C71.09 40.9367 71.5365 41.1827 71.7118 41.2524C71.7917 41.2847 72.0314 41.3802 72.0687 41.397C72.1319 41.4267 72.204 41.5158 72.2427 41.57C72.3393 41.7043 72.3239 41.7327 72.2942 41.9083L72.3091 41.8592C72.0781 42.9554 71.9009 44.0623 71.7782 45.1759C71.7047 45.8537 71.657 46.534 71.5726 47.2105C71.5095 47.7237 71.418 48.2343 71.3729 48.7495C71.2685 49.9643 71.1822 51.2141 71.1944 52.4335C71.2009 53.1074 71.2608 53.8084 71.5907 54.41C71.9109 54.9936 72.4411 55.3899 73.0648 55.6049C73.5996 55.7902 74.1556 55.8708 74.7194 55.9083C75.0828 55.9315 75.4172 55.8792 75.7728 55.896C76.0524 55.9089 76.8546 55.8044 76.9718 55.7682C77.1387 55.7159 77.3133 55.6895 77.4802 55.6333C77.8126 55.5216 78.2044 55.4312 78.5143 55.266C79.1167 54.9445 79.7172 54.6489 80.2004 54.1641C81.7635 52.5993 82.8678 49.1336 83.1307 46.4243C83.2119 45.5897 83.3137 44.7563 83.4077 43.9236C83.5012 43.0967 83.688 42.2827 83.7415 41.4499C83.7647 41.0904 83.7834 40.7308 83.8046 40.3706L83.8446 39.7632C83.8536 39.6212 83.8639 39.208 83.9367 39.0822C84.0546 38.8782 84.4483 38.7852 84.6551 38.6523C85.0204 38.4199 85.3793 38.1836 85.6499 37.8402V37.8395ZM103.686 34.1246C103.382 33.7941 102.655 34.0729 102.293 34.1394C101.707 34.2472 101.121 34.3524 100.542 34.4919C100.018 34.6171 99.5165 34.7346 98.983 34.8146C98.5758 34.8753 98.1686 34.9295 97.7653 35.0083C96.1629 35.3233 94.5953 35.8094 92.9917 36.125C92.5851 36.2051 92.1779 36.2851 91.7707 36.3639C90.986 36.5149 90.2418 36.7615 89.4738 36.9668C88.988 37.0959 88.5009 37.2205 88.017 37.356C87.8115 37.4141 87.5937 37.4419 87.4372 37.591C87.278 37.7414 87.1537 37.9719 87.057 38.1675C86.9359 38.4153 86.867 38.6516 86.8025 38.9189C86.7368 39.1938 86.577 39.4437 86.4971 39.7245C86.4011 40.0608 86.3051 40.8025 86.8869 40.6927C87.1885 40.6366 87.3966 40.2886 87.5673 40.0627C87.7342 39.8413 87.8914 39.6134 88.0447 39.383C88.4165 38.8253 88.7651 38.3127 89.3817 38.0138C89.9474 37.7382 90.5833 37.5917 91.1947 37.4606C91.4866 37.398 91.7797 37.3418 92.0716 37.2773C92.2262 37.2431 92.8106 37.0191 92.9221 37.112C92.9949 37.5497 92.7404 38.101 92.609 38.516C92.4422 39.053 92.2939 39.5956 92.1644 40.1428C91.9015 41.2259 91.6644 42.3175 91.4363 43.4091C91.22 44.4398 91.0254 45.4751 90.8526 46.514C90.7888 46.9013 90.7096 47.2861 90.6432 47.6727C90.5839 48.0187 90.1207 50.3103 89.9551 51.1056C89.8456 51.6298 89.6432 52.1191 89.2219 52.4677C88.9113 52.7239 88.4687 52.895 88.3134 53.2978C88.0886 53.8788 88.6774 54.0356 89.1227 53.9601C89.6587 53.8691 90.1909 53.678 90.7096 53.5166C91.6077 53.2378 92.5265 53.0002 93.4491 52.8195C94.1321 52.6858 94.8208 52.5871 95.5012 52.4399C95.8659 52.3611 96.2421 52.334 96.6042 52.2475C97.1119 52.1268 97.398 51.6388 96.9683 51.2199C96.7209 50.9784 96.2247 50.8958 96.0257 50.6253C95.7924 50.3071 95.8891 49.812 95.9367 49.457C96.007 48.9309 96.1152 48.4177 96.2119 47.8961C96.4651 46.534 96.6906 45.1655 96.9915 43.8138C97.3729 42.0967 97.8213 40.39 98.1306 38.6568C98.2143 38.1855 98.3155 37.7201 98.4469 37.2599C98.5261 36.9875 98.6095 36.7163 98.6969 36.4465C98.7388 36.3161 98.7762 35.9804 98.8805 35.8778C98.9179 35.8404 99.0081 35.8417 99.0674 35.8326C99.3676 35.7861 99.6666 35.7306 99.9662 35.679C100.429 35.5996 100.883 35.5279 101.339 35.415C101.595 35.35 101.857 35.3123 102.121 35.3027C102.343 35.2962 102.407 35.3504 102.498 35.5589C102.669 35.9553 102.603 36.4375 102.712 36.8558C102.833 37.318 103.34 37.5155 103.426 36.9436C103.502 36.4401 103.604 35.934 103.677 35.4266C103.728 35.0793 103.969 34.4222 103.686 34.1246ZM127.164 29.4717C127.338 29.6498 127.468 29.8435 127.578 30.0668C127.676 30.2637 127.748 30.582 127.96 30.6917C128.449 30.9447 128.547 30.1069 128.636 29.8235C128.755 29.4413 129.122 28.6654 128.851 28.2917C128.707 28.0928 128.508 28.1638 128.304 28.1948C128.03 28.2387 127.75 28.2478 127.473 28.2833C126.297 28.4356 115.661 30.9234 114.576 31.192C114.378 31.2417 114.179 31.2914 113.977 31.3314C113.936 31.3392 113.848 31.3663 113.802 31.3637C113.75 31.3592 113.245 31.4986 113.14 31.5857C112.976 31.7213 112.837 31.831 112.889 32.0712C112.947 32.3365 113.217 32.463 113.459 32.514C113.583 32.5398 113.929 32.5153 114.004 32.6024C114.101 32.7161 114.027 33.1563 114.019 33.2957C114.002 33.6146 113.981 33.9309 113.98 34.2511C113.968 36.3135 113.576 38.3611 113.268 40.3926C113.18 40.9697 113.159 41.5545 113.062 42.129C112.967 42.6887 112.879 43.249 112.791 43.8093C112.714 44.2973 112.636 44.7937 112.52 45.2733C112.455 45.5419 112.294 46.5625 112.215 46.8297C112.123 47.1441 112.004 47.2667 111.74 47.4526C111.533 47.5985 111.319 47.7489 111.145 47.9355C110.829 48.2769 110.768 48.7953 111.346 48.8121C111.848 48.8269 112.361 48.6856 112.857 48.6313C113.213 48.5926 117.9 47.3726 117.932 47.379C118.166 47.4178 118.373 47.2841 118.378 47.0304C118.387 46.6354 117.953 46.505 117.643 46.4353C117.463 46.3946 117.329 46.4049 117.258 46.2416C117.173 46.046 117.289 45.6245 117.311 45.4186C117.369 44.8912 117.438 44.367 117.509 43.8416C117.608 43.1076 117.731 42.3782 117.855 41.6481C117.989 40.8619 118.117 40.0769 118.239 39.2887C118.27 39.0854 118.307 38.8821 118.347 38.6807C118.363 38.5993 118.365 38.4237 118.41 38.3598C118.479 38.2624 118.691 38.2527 118.822 38.223C119.422 38.0887 120.019 37.939 120.619 37.806C121.158 37.6854 121.694 37.5535 122.227 37.4103C122.592 37.3347 122.346 38.2882 122.677 38.3043C123.023 38.3211 123.106 37.8344 123.202 37.5923C123.313 37.3122 123.771 35.6867 123.261 35.8404C122.952 35.9333 122.901 36.3193 122.242 36.5343C121.868 36.6563 121.571 36.7021 121.193 36.8048C120.334 37.0378 119.464 37.145 118.581 37.2437C118.689 36.6892 118.813 36.1399 118.908 35.5828L118.892 35.6357C119.094 34.7165 119.231 33.7844 119.414 32.8613C119.553 32.1706 119.614 30.9312 120.365 30.6188C120.616 30.5135 123.196 29.8338 123.734 29.7402C124.334 29.635 126.85 29.105 126.923 29.1425C126.972 29.167 127.107 29.4142 127.164 29.4717ZM139.043 28.2148C139.268 27.4079 140.195 27.2078 140.773 26.7179C140.982 26.541 141.233 26.2699 141.184 25.9691C141.157 25.8045 141.04 25.6941 140.896 25.6308C140.834 25.6037 140.712 25.5585 140.64 25.5805C140.555 25.6063 140.116 25.7399 139.957 25.7606C139.762 25.7858 136.33 26.663 135.462 26.8747C134.664 27.0703 132.173 27.5203 131.758 27.6958C131.64 27.7462 131.278 27.7862 131.168 27.934C131.125 28.0225 131.122 28.0954 131.131 28.0502C131.113 28.1342 131.113 28.18 131.16 28.2633C131.191 28.3188 131.285 28.3685 131.34 28.3924C131.593 28.5079 131.821 28.6215 132.081 28.71C132.415 28.8229 132.619 28.8436 132.72 29.2296C132.824 29.6253 132.779 30.0752 132.742 30.4774C132.62 31.7904 131.768 37.0933 131.519 38.4754C131.408 39.0867 130.981 42.1484 130.794 42.5583C130.86 42.4079 130.733 42.65 130.695 42.7003C130.617 42.8068 130.525 42.9056 130.436 43.0024C130.202 43.2574 129.936 43.4659 129.682 43.6989C129.45 43.9113 128.522 44.6427 129.181 44.9267C129.461 45.0474 132.388 44.3244 133.064 44.236C133.716 44.1501 137.27 43.2839 137.573 43.227C137.809 43.1819 138.087 43.1677 138.191 42.9043C138.425 42.304 137.578 42.2904 137.231 42.2058C137.172 42.1916 137.06 42.18 137.004 42.1452C136.904 42.0838 136.913 42.0935 136.902 41.9554C136.894 41.8693 136.889 41.783 136.886 41.6965C136.88 41.4254 136.907 41.1517 136.94 40.8832C137.009 40.3061 137.051 39.7258 137.148 39.1525L137.133 39.1906C137.343 38.232 137.782 34.9257 137.886 34.2324C138.034 33.2447 138.157 32.2532 138.381 31.2798C138.614 30.2682 138.762 29.2128 139.043 28.2155V28.2148ZM148.216 29.8771C148.444 28.7455 148.547 27.6048 148.823 26.4816C148.937 26.0175 149.008 25.5456 149.109 25.0789C149.142 24.9279 149.169 24.7755 149.214 24.627C149.237 24.5528 149.31 24.2591 149.377 24.1945C149.531 24.048 149.759 24.0067 150.346 24.0086C150.882 23.9744 151.543 24.0751 151.97 24.454C152.402 24.8368 152.55 25.4998 152.605 26.0549C152.645 26.461 152.551 26.8341 152.457 27.2233C152.335 27.732 152.193 28.2226 151.976 28.699C151.847 28.9804 151.702 29.2541 151.557 29.5272C151.486 29.6608 151.415 29.7938 151.342 29.9255C151.301 29.9991 151.172 30.3063 151.097 30.3315C150.971 30.3728 150.569 30.1863 150.42 30.1598C150.231 30.1262 149.988 30.0533 149.797 30.0455C149.22 30.0204 148.716 30.0701 148.169 30.0965C148.189 30.0242 148.203 29.9513 148.216 29.8771ZM159.149 36.5614C159.114 36.3936 159.001 36.1954 158.805 36.2148C158.6 36.2361 158.517 36.4936 158.475 36.6628C158.372 37.0875 158.524 37.4839 158.213 37.8602C157.976 38.1475 157.471 38.4044 157.128 38.4986C156.702 38.6148 156.293 38.2772 155.998 37.9648C154.87 36.7725 154.739 35.2549 154.115 33.8141C153.641 32.7186 152.871 31.8104 151.996 31.019C152.704 30.6459 153.385 30.2076 153.987 29.6757C154.572 29.1592 155.211 28.6919 155.72 28.0941C156.565 27.1033 157.093 25.9052 156.84 24.5915L156.82 24.4999C156.871 24.7323 156.796 24.4011 156.791 24.3805C156.773 24.314 156.751 24.2485 156.726 24.1842C156.661 24.0233 156.579 23.8699 156.481 23.7265C156.257 23.3913 155.981 23.0939 155.664 22.8454C155.074 22.3987 154.337 22.329 153.621 22.3503C153.393 22.3568 153.168 22.3632 152.945 22.4181C152.83 22.4465 152.172 22.5846 151.962 22.6188C151.223 22.7421 143.459 24.5218 143.378 24.5225C143.215 24.5238 143.093 24.6199 142.963 24.7174C142.71 24.9072 142.867 25.1112 143.151 25.137C143.433 25.1641 143.729 25.1112 144.017 25.1325C144.182 25.1441 144.322 25.0957 144.374 25.2538C144.409 25.3591 144.368 25.5534 144.364 25.6696C144.354 25.9872 144.319 26.2989 144.28 26.614C144.162 27.5519 143.979 28.486 143.806 29.4136C143.658 30.2095 143.182 32.9865 143.075 33.5804C142.977 34.131 142.344 38.4993 142.195 39.3565C142.148 39.625 142.097 39.891 142.027 40.1537C141.965 40.3771 141.872 40.5906 141.75 40.7876C141.666 40.9206 141.599 40.9671 141.487 41.093C141.375 41.2201 141.121 41.4719 141.208 41.6262C141.261 41.7204 141.337 41.7127 141.421 41.712C141.55 41.712 141.717 41.6843 141.851 41.6655C142.107 41.63 142.361 41.5661 142.613 41.5067C143.088 41.3938 145.319 40.9955 145.959 40.9012C146.291 40.8528 147.561 40.6359 147.502 40.1989C147.464 39.9239 147.131 39.9188 146.943 39.7877C146.698 39.618 146.581 39.4069 146.532 39.1112C146.437 38.5419 146.636 37.9448 146.713 37.3812C146.977 35.4234 147.435 33.4694 147.891 31.5502C147.904 31.498 147.917 31.4457 147.928 31.3927C147.979 31.1733 147.967 31.1442 148.181 31.2036C148.518 31.2966 148.857 31.4812 149.096 31.7458C149.623 32.332 149.791 33.1653 150.029 33.8954C150.284 34.6746 150.585 35.4298 150.888 36.1909C151.176 36.9132 151.371 37.6756 151.707 38.3773C152.04 39.0725 152.516 39.7161 153.185 40.1073C153.8 40.4675 154.53 40.5991 155.233 40.6288C156.024 40.663 156.717 40.4268 157.385 40.004C157.97 39.6334 158.633 39.128 158.955 38.4947C159.28 37.8602 159.28 37.234 159.149 36.5614H159.149Z" fill="black"/>
<path fill-rule="evenodd" clip-rule="evenodd" d="M171.669 25.084C171.792 24.5018 171.911 23.924 172 23.336C172.044 23.0571 172.08 22.7744 172.111 22.4936C172.132 22.296 172.107 22.0546 171.853 22.0385C171.594 22.0223 171.582 22.2554 171.505 22.4303C171.395 22.6821 170.824 23.1701 170.516 22.9745C170.384 22.8906 170.287 22.5936 170.215 22.4516C170.078 22.1799 169.941 21.9068 169.779 21.6479C169.395 21.0347 168.926 20.4666 168.29 20.0922C167.944 19.8895 167.119 19.7643 166.716 19.765C166.192 19.7663 164.858 19.8999 164.505 19.9819C164.01 20.0961 163.103 20.4047 162.672 20.6739C162.253 20.9346 161.069 22.063 160.824 22.522C160.329 23.4496 160.239 24.4314 160.464 25.4481C160.728 26.6443 161.375 27.7378 162.168 28.6647C162.932 29.5588 163.746 30.487 164.474 31.3624L164.561 31.4708C164.436 31.3236 164.568 31.4811 164.587 31.507C164.636 31.5715 164.686 31.6367 164.734 31.7026C164.828 31.8317 164.92 31.9614 165 32.0989C165.15 32.3552 165.26 32.6269 165.342 32.911C165.517 33.5255 165.615 34.1458 165.514 34.7817C165.426 35.3407 165.187 35.9301 164.625 36.1599C163.998 36.4161 163.433 36.2573 162.867 35.9423C161.91 35.4091 161.063 34.619 160.436 33.7276C159.882 32.94 159.509 32.0208 158.918 31.2617C158.779 31.0835 158.678 31.0202 158.514 31.1958C158.408 31.3094 158.179 32.4191 158.134 32.5566C157.853 33.3925 157.681 34.315 157.553 35.1845C157.513 35.4621 157.466 35.739 157.417 36.0153C157.377 36.236 157.39 36.4523 157.346 36.6672C157.316 36.8222 157.246 36.9719 157.366 37.1088C157.557 37.325 157.777 37.1475 157.898 36.9752C158.054 36.7557 158.199 36.5272 158.351 36.3051C158.623 35.9081 159.027 35.2374 159.536 35.1167C159.714 35.0748 160.39 35.5344 160.626 35.6667C160.906 35.8236 161.17 36.1095 161.418 36.3174C161.808 36.6421 162.265 36.9145 162.704 37.1662C162.969 37.3179 164.045 37.7995 164.208 37.8092C164.557 37.8285 164.924 37.846 165.273 37.8369C166.331 37.8092 167.399 37.2489 168.309 36.7525C169.268 36.2296 170.064 35.3291 170.288 34.2517C170.529 33.0833 170.422 31.842 169.816 30.793C169.524 30.2882 169.122 29.8699 168.834 29.3664C168.51 28.8003 168.119 28.2807 167.738 27.7526C167.022 26.763 166.293 25.8212 165.697 24.7542C165.414 24.2494 165.017 23.6794 164.925 23.0978C164.834 22.5297 165.065 21.8939 165.575 21.6344C165.797 21.5221 166.147 21.3652 166.396 21.3955C166.718 21.4349 167.021 21.5092 167.314 21.6454C167.867 21.9036 168.401 22.2218 168.887 22.6007C169.732 23.2605 170.153 24.2952 170.451 25.29C170.542 25.5921 170.618 25.8974 170.718 26.1976C170.773 26.3641 170.812 26.6094 170.942 26.7301C171.237 27.0019 171.411 26.3706 171.451 26.1556C171.516 25.7973 171.592 25.4397 171.669 25.084ZM164.398 31.3998L164.372 31.3688L164.398 31.3998ZM189.487 15.489C189.331 15.1986 188.991 15.2308 188.717 15.276C188.275 15.3509 187.833 15.4361 187.393 15.5181C186.52 15.6808 182.462 16.5122 181.296 16.793C180.282 17.037 176.422 17.8103 175.542 18.1086C174.886 18.3306 174.203 18.4804 173.535 18.6676C173.241 18.7496 173.111 18.8496 172.929 19.1001C172.801 19.2769 172.704 19.4848 172.623 19.6875C172.542 19.8895 172.492 20.2491 172.429 20.4079C172.355 20.5912 172.172 21.1289 172.145 21.3245C172.089 21.7209 172.08 21.9539 172.476 21.9662C172.85 21.9778 173.111 21.5163 173.307 21.2522C173.569 20.8991 173.797 20.5228 174.053 20.1665C174.565 19.4538 175.255 19.1524 176.076 18.9239C176.467 18.8154 178.338 18.3267 178.535 18.3622C178.745 18.401 178.58 18.838 178.534 19.0175C178.42 19.459 178.263 19.8863 178.136 20.3233C177.901 21.1341 177.719 21.9668 177.538 22.7912C177.188 24.3875 176.842 25.9884 176.574 27.6003C176.525 27.8959 176.467 28.1877 176.409 28.4814C176.362 28.719 175.702 32.5585 175.411 33.1079C175.253 33.4041 175.028 33.6514 174.758 33.845C174.49 34.0374 174.163 34.2065 174.016 34.5203C173.836 34.9043 174.065 35.2297 174.463 35.2549C174.844 35.2794 175.245 35.1245 175.605 35.0212C176.355 34.8056 180.108 34.0516 181.26 33.8089C181.718 33.7121 182.822 33.6359 182.895 33.0059C182.941 32.605 182.555 32.3649 182.258 32.2041C182.073 32.1034 181.812 32.0311 181.71 31.8426C181.452 31.3688 181.632 30.7162 181.714 30.2011C181.776 29.8163 181.868 29.4361 181.939 29.0527C182.158 27.8779 182.339 26.6869 182.601 25.5204C182.665 25.2338 182.727 24.9459 182.794 24.6606C182.97 23.9105 183.109 23.1436 183.307 22.4C183.694 20.9443 183.867 19.4435 184.318 18.004C184.379 17.8084 184.442 17.6134 184.505 17.4185C184.518 17.3772 184.554 17.1822 184.594 17.1422C184.712 17.0241 187.213 16.6316 187.563 16.5903C187.934 16.5477 188.126 16.5206 188.257 16.9053C188.365 17.2216 188.346 17.6025 188.401 17.933C188.444 18.1918 188.558 18.6495 188.91 18.5766C189.219 18.512 189.188 18.0117 189.219 17.7632C189.271 17.3443 189.606 15.8079 189.488 15.489H189.487ZM190.019 30.4825C189.595 29.4329 188.17 29.1715 187.199 29.746C186.317 30.2689 185.959 32.055 187.431 32.0298C187.572 32.0273 188.018 31.8685 188.099 31.9801C188.217 32.1415 187.799 32.5127 187.701 32.6127C187.35 32.9736 186.902 33.1388 186.499 33.4313C186.354 33.5365 186.188 33.7405 186.375 33.8857C186.52 33.998 186.893 33.9632 187.068 33.9561C187.53 33.9373 187.985 33.831 188.407 33.643C189.643 33.0853 190.507 31.7155 190.019 30.4825ZM186.603 70.1478C185.562 69.9541 184.542 70.6616 184.045 71.5266C183.77 72.0056 183.581 72.533 183.832 73.0539C184.038 73.4825 184.404 73.8111 184.87 73.9357C185.823 74.19 187.073 73.4967 187.394 72.5891C187.695 71.7409 187.755 70.3601 186.603 70.1478ZM183.441 63.273C183.404 63.1381 183.305 63.0341 183.151 63.0606C183.035 63.0813 182.423 62.6888 182.087 63.9243C181.772 65.0811 178.803 69.4661 177.851 70.5306C177.304 71.1458 176.722 71.7286 176.107 72.276C175.549 72.7705 174.986 73.2153 174.277 73.4767C173.628 73.7156 172.94 73.8705 172.266 74.0189C171.418 74.2049 169.774 74.5889 169.796 74.5702C169.432 74.5709 168.883 74.6722 168.482 74.4895C168.312 74.4121 168.16 73.9976 168.093 73.8311C167.797 73.0933 168.033 72.2012 168.025 71.4246C168.019 70.7959 168.118 70.1729 168.18 69.5474C168.263 68.6954 169.445 61.827 169.497 61.3113C169.551 60.7884 169.637 60.2655 169.714 59.7459C169.734 59.6045 169.723 59.4147 169.825 59.3347C169.928 59.2527 170.152 59.2269 170.284 59.1817C170.783 59.0138 171.295 58.8925 171.806 58.7666C172.257 58.6556 172.717 58.5801 173.178 58.5278C173.369 58.5065 173.543 58.4632 173.707 58.5355C173.913 58.6259 174.04 58.8034 174.109 59.0132C174.262 59.4715 174.269 60.0325 174.299 60.5134C174.322 60.8865 174.306 61.2596 174.326 61.6327C174.345 61.9832 174.281 62.5048 174.565 62.7611C174.862 63.029 175.219 62.8244 175.395 62.5358C175.78 61.9077 175.831 61.0027 175.958 60.2887C176.109 59.4334 176.277 58.5846 176.435 57.7312C176.694 56.3304 177.144 54.9322 177.23 53.5063C177.249 53.1996 177.305 52.5664 177.041 52.3379C176.724 52.0642 176.398 52.538 176.246 52.7652C175.706 53.5657 175.505 54.521 175.079 55.3757C174.871 55.7953 174.57 56.2213 174.183 56.4905C173.785 56.7661 173.316 56.843 172.848 56.9249C172.246 57.0302 171.649 57.1651 171.048 57.2813C170.719 57.3458 170.397 57.4278 170.073 57.5117C170.379 56.1561 171.882 50.2884 172.308 48.6829C172.498 47.9638 172.652 47.2344 172.853 46.5179C173.062 45.7704 173.219 44.9899 173.482 44.2611C173.619 43.8816 174.024 42.8016 174.194 42.5983C174.266 42.5124 174.832 42.3078 174.935 42.2523C175.072 42.1787 175.316 42.1632 175.466 42.1283C176.275 41.9411 177.085 41.7507 177.898 41.5842C178.692 41.4173 179.496 41.3036 180.305 41.244C181.366 41.1704 182.647 41.2117 183.412 42.0677C183.747 42.4434 183.926 42.9023 184.114 43.3626C184.314 43.8558 184.464 44.3599 184.5 44.8938C184.558 45.7458 184.58 46.5947 184.694 47.4416C184.748 47.8418 184.654 49.7126 185.473 49.3498C185.937 49.1432 185.985 48.3951 186.127 47.978C186.279 47.5307 186.343 47.0549 186.386 46.5734C186.47 45.6393 186.73 44.7253 186.944 43.8151C187.116 43.0857 187.232 42.3252 187.357 41.5868C187.498 40.7469 187.645 39.8774 187.55 39.024C187.502 38.5928 187.391 38.0448 186.942 37.864C186.56 37.7098 184.285 38.3308 183.555 38.4908C182.743 38.669 181.929 38.833 181.121 39.0273C180.796 39.1054 173.428 40.6617 172.438 40.8476C171.56 41.0122 166.219 41.8701 165.758 41.8973C165.52 41.9121 165.001 41.8643 164.983 42.2329C164.977 42.3298 164.997 42.4264 165.041 42.5131C165.064 42.5305 165.157 42.648 165.207 42.6822C165.39 42.8113 165.72 43.1005 165.786 43.2083C165.907 43.4065 166.005 43.6124 166.072 43.8345C166.181 44.1927 166.08 44.4477 165.981 44.7943C165.793 45.4625 165.593 46.128 165.42 46.8006C165.032 48.3111 164.743 49.8423 164.412 51.3657C164.052 53.0273 163.572 54.6643 163.236 56.3298C162.987 57.5653 162.828 58.8318 162.674 60.0822C162.558 61.0175 162.329 61.9219 162.146 62.8444C162.003 63.5856 161.883 64.3311 161.786 65.0798C161.665 65.9661 161.528 66.8511 161.253 67.7045C161.08 68.2435 160.163 73.8627 160.108 74.556C160.082 74.8917 160.051 75.2248 159.995 75.5566C159.936 75.9084 159.946 76.3874 159.681 76.6604C159.326 77.0215 158.96 77.3717 158.583 77.7107C158.363 77.9108 158.094 78.098 157.986 78.3872C157.834 78.7913 158.094 79.1399 158.509 79.1521C159.174 79.1715 159.884 78.8836 160.522 78.7035C161.193 78.5137 161.871 78.3736 162.556 78.2413C163.818 77.9986 172.75 76.0304 174.297 75.6121C174.97 75.4307 175.642 75.2538 176.328 75.1299C177.057 74.9976 177.764 74.7955 178.499 74.7084C179.449 74.5928 180.394 74.4399 181.331 74.25C181.683 74.1803 181.97 74.0273 182.186 73.7272C182.394 73.4386 182.532 72.1883 182.558 71.8894C182.596 71.464 182.741 68.991 182.87 68.1912C183.019 67.2668 183.513 63.5441 183.441 63.2736" fill="black"/>
</g>
<defs>
<clipPath id="clip0_1_5727">
<rect width="192.001" height="129.104" fill="white" transform="translate(0.733765 0.399414)"/>
</clipPath>
</defs>
</svg>
